<svg xmlns="http://www.w3.org/2000/svg" version="1.1" xmlns:xlink="http://www.w3.org/1999/xlink" xmlns:svgjs="http://svgjs.dev/svgjs" width="1500" height="1500" viewBox="0 0 1500 1500"><rect width="1500" height="1500" fill="#ffffff"></rect><g transform="matrix(0.6666666666666666,0,0,0.6666666666666666,249.39393939393938,594.9632677347039)"><svg viewBox="0 0 396 122" data-background-color="#af6834" preserveAspectRatio="xMidYMid meet" height="462" width="1500" xmlns="http://www.w3.org/2000/svg" xmlns:xlink="http://www.w3.org/1999/xlink"><g id="tight-bounds" transform="matrix(1,0,0,1,0.2400000000000091,0.4106536895004069)"><svg viewBox="0 0 395.52 121.17869262099917" height="121.17869262099917" width="395.52"><g><svg viewBox="0 0 395.52 121.17869262099917" height="121.17869262099917" width="395.52"><g><svg viewBox="0 0 395.52 121.17869262099917" height="121.17869262099917" width="395.52"><g id="textblocktransform"><svg viewBox="0 0 395.52 121.17869262099917" height="121.17869262099917" width="395.52" id="textblock"><g><svg viewBox="0 0 395.52 85.56644469996982" height="85.56644469996982" width="395.52"><rect width="395.52" height="85.56644469996982" x="0" y="0" opacity="1" fill="#000000" data-fill-palette-color="tertiary"></rect><g transform="matrix(1,0,0,1,23.461705032,23.461705032)"><svg width="348.596589936" viewBox="3.98 -42.94 504.74 55.95" height="38.64303463596982" data-palette-color="#af6834"><path d="M13.67-13.13L13.67 0 3.98 0 3.98-35.16 21.26-35.16Q23.71-35.16 25.98-34.58 28.25-34.01 29.99-32.78 31.74-31.54 32.78-29.59 33.81-27.64 33.81-24.85L33.81-24.85Q33.81-22.68 32.9-20.76 31.98-18.85 30.46-17.35 28.93-15.84 26.95-14.86 24.98-13.87 22.85-13.55L22.85-13.55Q23.8-11.94 24.84-10.5 25.88-9.06 26.94-7.8 28-6.54 29.05-5.48 30.1-4.42 31.05-3.54L31.05-3.54Q33.3-1.49 35.5 0L35.5 0 23.41 0Q21.95-1.39 20.63-3.34L20.63-3.34Q19.51-5 18.37-7.46 17.24-9.91 16.63-13.13L16.63-13.13 13.67-13.13ZM23.97-24.85L23.97-24.85Q23.97-28.39 22.25-30.05 20.53-31.71 17.09-31.71L17.09-31.71 13.67-31.71 13.67-16.46 17.09-16.46Q18.92-16.46 20.23-17.15 21.53-17.85 22.36-19.01 23.19-20.17 23.58-21.68 23.97-23.19 23.97-24.85ZM45.29-13.38L45.29-13.38Q46.8-13.04 48.31-12.84 49.83-12.65 51.36-12.65L51.36-12.65Q52.98-12.65 54.36-12.95 55.73-13.26 56.75-13.98 57.76-14.7 58.35-15.89 58.93-17.09 58.93-18.87L58.93-18.87Q58.93-20.31 58.54-21.51 58.15-22.71 57.38-23.56 56.61-24.41 55.49-24.89 54.37-25.37 52.88-25.37L52.88-25.37Q51.49-25.37 50.38-24.85 49.27-24.34 48.42-23.47 47.58-22.61 46.98-21.46 46.38-20.31 45.99-19.07 45.6-17.82 45.43-16.55 45.26-15.28 45.26-14.16L45.26-14.16Q45.26-13.96 45.26-13.77 45.26-13.57 45.29-13.38ZM65.62-18.95L65.62-18.95Q65.62-17.21 65.06-15.86 64.5-14.5 63.54-13.48 62.57-12.45 61.3-11.74 60.03-11.04 58.59-10.58 57.15-10.13 55.62-9.94 54.1-9.74 52.66-9.74L52.66-9.74Q50.83-9.74 49.05-10 47.26-10.25 45.53-10.82L45.53-10.82Q45.8-9.2 46.38-7.75 46.97-6.3 47.95-5.21 48.92-4.13 50.35-3.49 51.78-2.86 53.73-2.86L53.73-2.86Q55.03-2.86 56.2-3.25 57.37-3.64 58.35-4.35 59.32-5.05 60.07-6.03 60.81-7.01 61.28-8.2L61.28-8.2 64.84-6.88Q64.04-4.96 62.63-3.55 61.23-2.15 59.46-1.23 57.69-0.32 55.7 0.12 53.71 0.56 51.76 0.56L51.76 0.56Q48.53 0.56 45.8-0.52 43.06-1.61 41.09-3.56 39.11-5.52 37.99-8.23 36.86-10.94 36.86-14.16L36.86-14.16Q36.86-17.38 37.99-20.09 39.11-22.8 41.09-24.76 43.06-26.71 45.8-27.8 48.53-28.88 51.76-28.88L51.76-28.88Q53.32-28.88 54.95-28.66 56.59-28.44 58.13-27.97 59.67-27.49 61.03-26.73 62.4-25.98 63.41-24.87 64.43-23.75 65.02-22.29 65.62-20.83 65.62-18.95ZM96.8-21.22L96.8-21.22 93.23-19.8Q92.38-22.49 90.38-23.93 88.37-25.37 85.57-25.37L85.57-25.37Q84.05-25.37 82.87-24.89 81.68-24.41 80.79-23.58 79.9-22.75 79.28-21.66 78.66-20.56 78.27-19.31 77.88-18.07 77.7-16.74 77.53-15.41 77.53-14.16L77.53-14.16Q77.53-12.82 77.68-11.45 77.83-10.08 78.18-8.83 78.54-7.57 79.12-6.48 79.71-5.4 80.6-4.59 81.49-3.78 82.72-3.32 83.95-2.86 85.57-2.86L85.57-2.86Q86.86-2.86 88.03-3.25 89.2-3.64 90.18-4.35 91.16-5.05 91.91-6.03 92.67-7.01 93.11-8.2L93.11-8.2 96.7-6.88Q95.89-4.96 94.56-3.55 93.23-2.15 91.55-1.23 89.86-0.32 87.93 0.12 86.01 0.56 84.03 0.56L84.03 0.56Q80.83 0.56 78.1-0.52 75.36-1.61 73.37-3.58 71.38-5.54 70.26-8.24 69.14-10.94 69.14-14.16L69.14-14.16Q69.14-17.41 70.25-20.12 71.36-22.83 73.33-24.78 75.31-26.73 78.05-27.81 80.78-28.88 84.03-28.88L84.03-28.88Q86.08-28.88 88.03-28.43 89.99-27.98 91.66-27.04 93.33-26.1 94.66-24.66 95.99-23.22 96.8-21.22ZM110.34-35.01L110.34-35.01Q110.34-34.08 109.99-33.25 109.64-32.42 109.03-31.81 108.42-31.2 107.59-30.85 106.76-30.49 105.83-30.49L105.83-30.49Q104.9-30.49 104.08-30.85 103.26-31.2 102.65-31.81 102.04-32.42 101.69-33.25 101.34-34.08 101.34-35.01L101.34-35.01Q101.34-35.94 101.69-36.76 102.04-37.57 102.65-38.18 103.26-38.79 104.08-39.15 104.9-39.5 105.83-39.5L105.83-39.5Q106.76-39.5 107.59-39.15 108.42-38.79 109.03-38.18 109.64-37.57 109.99-36.76 110.34-35.94 110.34-35.01ZM109.98-28.17L109.98 0 101.7 0 101.7-28.17 109.98-28.17ZM146.87-14.16L146.87-14.16Q146.87-11.08 145.94-8.4 145.01-5.71 143.25-3.72 141.49-1.73 138.95-0.59 136.42 0.56 133.19 0.56L133.19 0.56Q130.73 0.56 128.66-0.4 126.6-1.37 125.14-3.37L125.14-3.37 125.14 13.01 116.88 13.01 116.88-28.2 120.06-28.2 123.72-22.07Q124.26-23.61 125.2-24.87 126.14-26.12 127.37-27.01 128.6-27.91 130.08-28.39 131.56-28.88 133.19-28.88L133.19-28.88Q136.42-28.88 138.95-27.73 141.49-26.59 143.25-24.6 145.01-22.61 145.94-19.92 146.87-17.24 146.87-14.16ZM138.49-14.16L138.49-14.16Q138.49-15.23 138.38-16.44 138.27-17.65 138-18.85 137.73-20.04 137.26-21.14 136.78-22.24 136.05-23.08 135.32-23.93 134.28-24.43 133.24-24.93 131.87-24.93L131.87-24.93Q130.46-24.93 129.42-24.44 128.38-23.95 127.64-23.11 126.89-22.27 126.42-21.18 125.94-20.09 125.67-18.9 125.41-17.7 125.3-16.48 125.19-15.26 125.19-14.16L125.19-14.16Q125.19-13.18 125.33-12 125.48-10.82 125.8-9.62 126.11-8.42 126.63-7.3 127.14-6.18 127.88-5.3 128.63-4.42 129.62-3.89 130.61-3.37 131.87-3.37L131.87-3.37Q133.27-3.37 134.29-3.87 135.32-4.37 136.05-5.21 136.78-6.05 137.26-7.15 137.73-8.25 138-9.45 138.27-10.64 138.38-11.87 138.49-13.09 138.49-14.16ZM158.95-13.38L158.95-13.38Q160.46-13.04 161.97-12.84 163.49-12.65 165.03-12.65L165.03-12.65Q166.64-12.65 168.02-12.95 169.4-13.26 170.41-13.98 171.42-14.7 172.01-15.89 172.59-17.09 172.59-18.87L172.59-18.87Q172.59-20.31 172.2-21.51 171.81-22.71 171.04-23.56 170.28-24.41 169.15-24.89 168.03-25.37 166.54-25.37L166.54-25.37Q165.15-25.37 164.04-24.85 162.93-24.34 162.08-23.47 161.24-22.61 160.64-21.46 160.05-20.31 159.66-19.07 159.26-17.82 159.09-16.55 158.92-15.28 158.92-14.16L158.92-14.16Q158.92-13.96 158.92-13.77 158.92-13.57 158.95-13.38ZM179.28-18.95L179.28-18.95Q179.28-17.21 178.72-15.86 178.16-14.5 177.2-13.48 176.23-12.45 174.96-11.74 173.69-11.04 172.25-10.58 170.81-10.13 169.29-9.94 167.76-9.74 166.32-9.74L166.32-9.74Q164.49-9.74 162.71-10 160.93-10.25 159.19-10.82L159.19-10.82Q159.46-9.2 160.05-7.75 160.63-6.3 161.61-5.21 162.59-4.13 164.01-3.49 165.44-2.86 167.39-2.86L167.39-2.86Q168.69-2.86 169.86-3.25 171.03-3.64 172.01-4.35 172.99-5.05 173.73-6.03 174.47-7.01 174.94-8.2L174.94-8.2 178.5-6.88Q177.7-4.96 176.29-3.55 174.89-2.15 173.12-1.23 171.35-0.32 169.36 0.12 167.37 0.56 165.42 0.56L165.42 0.56Q162.19 0.56 159.46-0.52 156.73-1.61 154.75-3.56 152.77-5.52 151.65-8.23 150.52-10.94 150.52-14.16L150.52-14.16Q150.52-17.38 151.65-20.09 152.77-22.8 154.75-24.76 156.73-26.71 159.46-27.8 162.19-28.88 165.42-28.88L165.42-28.88Q166.98-28.88 168.62-28.66 170.25-28.44 171.79-27.97 173.33-27.49 174.69-26.73 176.06-25.98 177.07-24.87 178.09-23.75 178.69-22.29 179.28-20.83 179.28-18.95ZM224.93-39.79L224.93-39.79 220.27-32.08Q220.2-33.01 219.93-34.22 219.66-35.42 219.04-36.5 218.42-37.57 217.33-38.32 216.24-39.06 214.56-39.06L214.56-39.06Q212.82-39.06 211.77-38.38 210.72-37.7 210.16-36.33 209.6-34.96 209.41-32.93 209.21-30.91 209.21-28.22L209.21-28.22 217.76-28.22 217.76-24.95 209.21-24.95 209.21 0 200.93 0 200.93-24.95 195.81-24.95 195.81-28.22 200.93-28.22Q200.93-32.1 201.76-34.89 202.59-37.67 204.28-39.47 205.96-41.26 208.52-42.1 211.07-42.94 214.48-42.94L214.48-42.94Q216.54-42.94 218.16-42.66 219.78-42.38 221.04-41.93 222.3-41.48 223.25-40.92 224.2-40.36 224.93-39.79ZM250.4-14.16L250.4-14.16Q250.4-11.96 249.81-10.03 249.22-8.11 248.19-6.47 247.15-4.83 245.68-3.53 244.22-2.22 242.47-1.32 240.73-0.42 238.74 0.07 236.75 0.56 234.65 0.56L234.65 0.56Q232.55 0.56 230.57 0.07 228.59-0.42 226.85-1.32 225.1-2.22 223.64-3.53 222.17-4.83 221.13-6.47 220.1-8.11 219.51-10.05 218.93-11.99 218.93-14.16L218.93-14.16Q218.93-16.33 219.51-18.27 220.1-20.21 221.13-21.85 222.17-23.49 223.64-24.79 225.1-26.1 226.85-27 228.59-27.91 230.57-28.39 232.55-28.88 234.65-28.88L234.65-28.88Q236.75-28.88 238.74-28.39 240.73-27.91 242.47-27 244.22-26.1 245.68-24.79 247.15-23.49 248.19-21.85 249.22-20.21 249.81-18.27 250.4-16.33 250.4-14.16ZM242-14.16L242-14.16Q242-15.33 241.86-16.64 241.73-17.94 241.41-19.2 241.09-20.46 240.54-21.62 239.99-22.78 239.19-23.65 238.38-24.51 237.26-25.04 236.14-25.56 234.65-25.56L234.65-25.56Q233.23-25.56 232.13-25.02 231.03-24.49 230.22-23.6 229.4-22.71 228.85-21.53 228.3-20.36 227.96-19.1 227.62-17.85 227.47-16.56 227.32-15.28 227.32-14.16L227.32-14.16Q227.32-13.04 227.47-11.76 227.62-10.47 227.96-9.2 228.3-7.93 228.85-6.77 229.4-5.62 230.22-4.72 231.03-3.83 232.13-3.3 233.23-2.76 234.65-2.76L234.65-2.76Q236.11-2.76 237.24-3.28 238.36-3.81 239.18-4.69 239.99-5.57 240.53-6.71 241.07-7.86 241.4-9.13 241.73-10.4 241.86-11.69 242-12.99 242-14.16ZM279.57-25.71L279.57-25.71 274.93-18.02Q274.64-18.99 274.17-20.21 273.71-21.44 273.02-22.5 272.34-23.56 271.39-24.28 270.44-25 269.19-25L269.19-25Q268.04-25 267.2-24.41 266.36-23.83 265.77-22.89 265.19-21.95 264.81-20.76 264.43-19.58 264.22-18.37 264.02-17.16 263.94-16.05 263.87-14.94 263.87-14.14L263.87-14.14 263.87 0 255.59 0 255.59-28.2 258.77-28.2 262.11-21.63Q262.79-23.22 263.67-24.55 264.55-25.88 265.7-26.84 266.85-27.81 268.3-28.34 269.75-28.88 271.58-28.88L271.58-28.88Q272.54-28.88 273.71-28.72 274.88-28.56 276-28.19 277.13-27.81 278.08-27.2 279.03-26.59 279.57-25.71ZM321.43-9.01L321.43-9.01Q321.43-7.15 320.9-5.71 320.36-4.27 319.43-3.21 318.5-2.15 317.23-1.43 315.96-0.71 314.51-0.27 313.06 0.17 311.47 0.37 309.88 0.56 308.32 0.56L308.32 0.56Q306.22 0.56 304.61 0.29 303 0.02 301.54-0.57 300.07-1.17 298.62-2.12 297.16-3.08 295.38-4.44L295.38-4.44 300.19-8.37Q300.85-7.13 301.94-6.12 303.02-5.1 304.2-4.37 305.37-3.64 306.47-3.25 307.57-2.86 308.25-2.86L308.25-2.86Q308.81-2.86 309.52-2.89 310.23-2.93 310.96-3.04 311.69-3.15 312.4-3.37 313.11-3.59 313.66-3.97 314.21-4.35 314.54-4.92 314.87-5.49 314.87-6.3L314.87-6.3Q314.87-7.13 314.44-7.75 314.01-8.37 313.33-8.84 312.64-9.3 311.76-9.62 310.89-9.94 309.99-10.18 309.1-10.42 308.27-10.61 307.44-10.79 306.83-10.96L306.83-10.96Q305.71-11.28 304.46-11.61 303.22-11.94 302-12.37 300.78-12.79 299.67-13.38 298.56-13.96 297.71-14.78 296.87-15.6 296.37-16.71 295.87-17.82 295.87-19.31L295.87-19.31Q295.87-22.05 296.96-23.89 298.04-25.73 299.83-26.84 301.61-27.95 303.88-28.42 306.15-28.88 308.49-28.88L308.49-28.88Q310.1-28.88 311.89-28.55 313.67-28.22 315.35-27.58 317.04-26.93 318.5-26 319.97-25.07 320.94-23.88L320.94-23.88 316.13-19.92Q315.6-21.39 314.73-22.44 313.86-23.49 312.85-24.16 311.84-24.83 310.78-25.15 309.71-25.46 308.81-25.46L308.81-25.46Q307.93-25.46 306.83-25.39 305.73-25.32 304.77-24.98 303.81-24.63 303.13-23.94 302.46-23.24 302.46-22.02L302.46-22.02Q302.46-21.14 302.87-20.52 303.27-19.9 303.93-19.45 304.59-18.99 305.43-18.69 306.27-18.38 307.15-18.15 308.03-17.92 308.86-17.75 309.69-17.58 310.35-17.38L310.35-17.38Q311.47-17.07 312.73-16.74 313.99-16.41 315.21-15.98 316.43-15.55 317.56-14.98 318.7-14.4 319.55-13.57 320.41-12.74 320.92-11.63 321.43-10.52 321.43-9.01ZM325.19-12.06L325.19-12.06Q325.19-13.99 325.52-16.06 325.85-18.14 326.47-20.21 327.09-22.29 327.97-24.32 328.85-26.34 329.95-28.2L329.95-28.2 335.98-28.2Q335.37-26.37 334.89-24.38 334.42-22.39 334.09-20.4 333.76-18.41 333.58-16.5 333.39-14.6 333.39-12.96L333.39-12.96Q333.39-12.01 333.48-10.93 333.56-9.84 333.78-8.75 334-7.67 334.41-6.67 334.81-5.66 335.44-4.9 336.08-4.13 336.99-3.67 337.91-3.22 339.15-3.22L339.15-3.22Q340.38-3.22 341.34-3.77 342.3-4.32 343.04-5.21 343.77-6.1 344.28-7.25 344.79-8.4 345.12-9.61 345.45-10.82 345.61-11.98 345.77-13.13 345.77-14.06L345.77-14.06 345.77-28.2 354.02-28.2 354.02 0 350.85 0 347.06-6.57Q346.36-4.93 345.34-3.6 344.33-2.27 343.04-1.32 341.74-0.37 340.17 0.15 338.59 0.66 336.76 0.66L336.76 0.66Q333.83 0.66 331.66-0.29 329.49-1.25 328.05-2.93 326.61-4.61 325.9-6.95 325.19-9.28 325.19-12.06ZM386.93-21.22L386.93-21.22 383.37-19.8Q382.51-22.49 380.51-23.93 378.51-25.37 375.7-25.37L375.7-25.37Q374.19-25.37 373-24.89 371.82-24.41 370.93-23.58 370.04-22.75 369.41-21.66 368.79-20.56 368.4-19.31 368.01-18.07 367.84-16.74 367.67-15.41 367.67-14.16L367.67-14.16Q367.67-12.82 367.81-11.45 367.96-10.08 368.31-8.83 368.67-7.57 369.25-6.48 369.84-5.4 370.73-4.59 371.62-3.78 372.86-3.32 374.09-2.86 375.7-2.86L375.7-2.86Q376.99-2.86 378.17-3.25 379.34-3.64 380.31-4.35 381.29-5.05 382.05-6.03 382.8-7.01 383.24-8.2L383.24-8.2 386.83-6.88Q386.03-4.96 384.7-3.55 383.37-2.15 381.68-1.23 380-0.32 378.07 0.12 376.14 0.56 374.16 0.56L374.16 0.56Q370.96 0.56 368.23-0.52 365.49-1.61 363.51-3.58 361.52-5.54 360.39-8.24 359.27-10.94 359.27-14.16L359.27-14.16Q359.27-17.41 360.38-20.12 361.49-22.83 363.47-24.78 365.45-26.73 368.18-27.81 370.91-28.88 374.16-28.88L374.16-28.88Q376.21-28.88 378.17-28.43 380.12-27.98 381.79-27.04 383.46-26.1 384.79-24.66 386.12-23.22 386.93-21.22ZM417.84-21.22L417.84-21.22 414.27-19.8Q413.42-22.49 411.42-23.93 409.41-25.37 406.61-25.37L406.61-25.37Q405.09-25.37 403.91-24.89 402.72-24.41 401.83-23.58 400.94-22.75 400.32-21.66 399.7-20.56 399.31-19.31 398.92-18.07 398.74-16.74 398.57-15.41 398.57-14.16L398.57-14.16Q398.57-12.82 398.72-11.45 398.87-10.08 399.22-8.83 399.57-7.57 400.16-6.48 400.75-5.4 401.64-4.59 402.53-3.78 403.76-3.32 404.99-2.86 406.61-2.86L406.61-2.86Q407.9-2.86 409.07-3.25 410.24-3.64 411.22-4.35 412.2-5.05 412.95-6.03 413.71-7.01 414.15-8.2L414.15-8.2 417.74-6.88Q416.93-4.96 415.6-3.55 414.27-2.15 412.59-1.23 410.9-0.32 408.97 0.12 407.05 0.56 405.07 0.56L405.07 0.56Q401.87 0.56 399.13-0.52 396.4-1.61 394.41-3.58 392.42-5.54 391.3-8.24 390.17-10.94 390.17-14.16L390.17-14.16Q390.17-17.41 391.29-20.12 392.4-22.83 394.37-24.78 396.35-26.73 399.09-27.81 401.82-28.88 405.07-28.88L405.07-28.88Q407.12-28.88 409.07-28.43 411.02-27.98 412.7-27.04 414.37-26.1 415.7-24.66 417.03-23.22 417.84-21.22ZM429.5-13.38L429.5-13.38Q431.02-13.04 432.53-12.84 434.04-12.65 435.58-12.65L435.58-12.65Q437.19-12.65 438.57-12.95 439.95-13.26 440.97-13.98 441.98-14.7 442.57-15.89 443.15-17.09 443.15-18.87L443.15-18.87Q443.15-20.31 442.76-21.51 442.37-22.71 441.6-23.56 440.83-24.41 439.71-24.89 438.59-25.37 437.1-25.37L437.1-25.37Q435.7-25.37 434.59-24.85 433.48-24.34 432.64-23.47 431.8-22.61 431.2-21.46 430.6-20.31 430.21-19.07 429.82-17.82 429.65-16.55 429.48-15.28 429.48-14.16L429.48-14.16Q429.48-13.96 429.48-13.77 429.48-13.57 429.5-13.38ZM449.84-18.95L449.84-18.95Q449.84-17.21 449.28-15.86 448.72-14.5 447.75-13.48 446.79-12.45 445.52-11.74 444.25-11.04 442.81-10.58 441.37-10.13 439.84-9.94 438.32-9.74 436.88-9.74L436.88-9.74Q435.05-9.74 433.26-10 431.48-10.25 429.75-10.82L429.75-10.82Q430.02-9.2 430.6-7.75 431.19-6.3 432.16-5.21 433.14-4.13 434.57-3.49 436-2.86 437.95-2.86L437.95-2.86Q439.24-2.86 440.42-3.25 441.59-3.64 442.57-4.35 443.54-5.05 444.29-6.03 445.03-7.01 445.49-8.2L445.49-8.2 449.06-6.88Q448.25-4.96 446.85-3.55 445.45-2.15 443.68-1.23 441.91-0.32 439.92 0.12 437.93 0.56 435.97 0.56L435.97 0.56Q432.75 0.56 430.02-0.52 427.28-1.61 425.3-3.56 423.33-5.52 422.2-8.23 421.08-10.94 421.08-14.16L421.08-14.16Q421.08-17.38 422.2-20.09 423.33-22.8 425.3-24.76 427.28-26.71 430.02-27.8 432.75-28.88 435.97-28.88L435.97-28.88Q437.54-28.88 439.17-28.66 440.81-28.44 442.35-27.97 443.88-27.49 445.25-26.73 446.62-25.98 447.63-24.87 448.64-23.75 449.24-22.29 449.84-20.83 449.84-18.95ZM479.26-9.01L479.26-9.01Q479.26-7.15 478.72-5.71 478.18-4.27 477.25-3.21 476.33-2.15 475.06-1.43 473.79-0.71 472.34-0.27 470.88 0.17 469.3 0.37 467.71 0.56 466.15 0.56L466.15 0.56Q464.05 0.56 462.44 0.29 460.82 0.02 459.36-0.57 457.89-1.17 456.44-2.12 454.99-3.08 453.21-4.44L453.21-4.44 458.02-8.37Q458.68-7.13 459.76-6.12 460.85-5.1 462.02-4.37 463.19-3.64 464.29-3.25 465.39-2.86 466.07-2.86L466.07-2.86Q466.63-2.86 467.34-2.89 468.05-2.93 468.78-3.04 469.52-3.15 470.22-3.37 470.93-3.59 471.48-3.97 472.03-4.35 472.36-4.92 472.69-5.49 472.69-6.3L472.69-6.3Q472.69-7.13 472.26-7.75 471.84-8.37 471.15-8.84 470.47-9.3 469.59-9.62 468.71-9.94 467.82-10.18 466.93-10.42 466.1-10.61 465.27-10.79 464.66-10.96L464.66-10.96Q463.53-11.28 462.29-11.61 461.04-11.94 459.82-12.37 458.6-12.79 457.49-13.38 456.38-13.96 455.54-14.78 454.7-15.6 454.2-16.71 453.7-17.82 453.7-19.31L453.7-19.31Q453.7-22.05 454.78-23.89 455.87-25.73 457.65-26.84 459.43-27.95 461.7-28.42 463.97-28.88 466.32-28.88L466.32-28.88Q467.93-28.88 469.71-28.55 471.49-28.22 473.18-27.58 474.86-26.93 476.33-26 477.79-25.07 478.77-23.88L478.77-23.88 473.96-19.92Q473.42-21.39 472.56-22.44 471.69-23.49 470.68-24.16 469.66-24.83 468.6-25.15 467.54-25.46 466.63-25.46L466.63-25.46Q465.76-25.46 464.66-25.39 463.56-25.32 462.59-24.98 461.63-24.63 460.96-23.94 460.29-23.24 460.29-22.02L460.29-22.02Q460.29-21.14 460.69-20.52 461.09-19.9 461.75-19.45 462.41-18.99 463.25-18.69 464.1-18.38 464.97-18.15 465.85-17.92 466.68-17.75 467.51-17.58 468.17-17.38L468.17-17.38Q469.3-17.07 470.55-16.74 471.81-16.41 473.03-15.98 474.25-15.55 475.39-14.98 476.52-14.4 477.38-13.57 478.23-12.74 478.74-11.63 479.26-10.52 479.26-9.01ZM508.72-9.01L508.72-9.01Q508.72-7.15 508.19-5.71 507.65-4.27 506.72-3.21 505.79-2.15 504.52-1.43 503.25-0.71 501.8-0.27 500.35 0.17 498.76 0.37 497.17 0.56 495.61 0.56L495.61 0.56Q493.51 0.56 491.9 0.29 490.29 0.02 488.82-0.57 487.36-1.17 485.91-2.12 484.45-3.08 482.67-4.44L482.67-4.44 487.48-8.37Q488.14-7.13 489.23-6.12 490.31-5.1 491.49-4.37 492.66-3.64 493.76-3.25 494.85-2.86 495.54-2.86L495.54-2.86Q496.1-2.86 496.81-2.89 497.52-2.93 498.25-3.04 498.98-3.15 499.69-3.37 500.4-3.59 500.95-3.97 501.5-4.35 501.83-4.92 502.15-5.49 502.15-6.3L502.15-6.3Q502.15-7.13 501.73-7.75 501.3-8.37 500.62-8.84 499.93-9.3 499.05-9.62 498.18-9.94 497.28-10.18 496.39-10.42 495.56-10.61 494.73-10.79 494.12-10.96L494.12-10.96Q493-11.28 491.75-11.61 490.51-11.94 489.29-12.37 488.07-12.79 486.96-13.38 485.85-13.96 485-14.78 484.16-15.6 483.66-16.71 483.16-17.82 483.16-19.31L483.16-19.31Q483.16-22.05 484.25-23.89 485.33-25.73 487.12-26.84 488.9-27.95 491.17-28.42 493.44-28.88 495.78-28.88L495.78-28.88Q497.39-28.88 499.18-28.55 500.96-28.22 502.64-27.58 504.33-26.93 505.79-26 507.26-25.07 508.23-23.88L508.23-23.88 503.42-19.92Q502.89-21.39 502.02-22.44 501.15-23.49 500.14-24.16 499.13-24.83 498.07-25.15 497-25.46 496.1-25.46L496.1-25.46Q495.22-25.46 494.12-25.39 493.02-25.32 492.06-24.98 491.1-24.63 490.42-23.94 489.75-23.24 489.75-22.02L489.75-22.02Q489.75-21.14 490.16-20.52 490.56-19.9 491.22-19.45 491.88-18.99 492.72-18.69 493.56-18.38 494.44-18.15 495.32-17.92 496.15-17.75 496.98-17.58 497.64-17.38L497.64-17.38Q498.76-17.07 500.02-16.74 501.28-16.41 502.5-15.98 503.72-15.55 504.85-14.98 505.99-14.4 506.84-13.57 507.7-12.74 508.21-11.63 508.72-10.52 508.72-9.01Z" opacity="1" transform="matrix(1,0,0,1,0,0)" fill="#ffffff" class="wordmark-text-0" data-fill-palette-color="quaternary" id="text-0"></path></svg></g></svg></g><g transform="matrix(1,0,0,1,0,97.29729721596982)"><svg viewBox="0 0 395.52 23.881395405029348" height="23.881395405029348" width="395.52"><g transform="matrix(1,0,0,1,0,0)"><svg width="395.52" viewBox="-1.85 -41.75 1172.58 70.8" height="23.881395405029348" data-palette-color="#211f1f"><path d="M-1.7-3.45L-1.7-3.45Q-0.9-5.45 0.58-8.1 2.05-10.75 3.15-12.4L3.15-12.4 4.25-14Q4.95-15 5.65-15L5.65-15Q6.2-15 6.2-14.45L6.2-14.45 6.05-13.95Q4.25-9.4 4.25-6.1L4.25-6.1Q4.25-3.45 5.43-1.78 6.6-0.1 9.1-0.1L9.1-0.1Q12.85-0.1 15.15-3.38 17.45-6.65 17.45-10.45L17.45-10.45Q17.45-13.7 15.23-19.73 13-25.75 13-27.9L13-27.9Q13-32.55 16.98-35.38 20.95-38.2 25.7-38.2L25.7-38.2Q26.55-38.2 27.38-38.1 28.2-38 29.2-37.77 30.2-37.55 30.8-37.05 31.4-36.55 31.4-35.8L31.4-35.8Q31.4-34.8 30-32.4 28.6-30 27.65-28.75L27.65-28.75Q27.3-28.5 27.05-28.5L27.05-28.5Q26.7-28.5 26.7-29.1L26.7-29.1Q26.7-30.5 27-32.9L27-32.9Q27-36.8 24-36.8L24-36.8Q21.45-36.8 19.68-35.05 17.9-33.3 17.9-30.8L17.9-30.8Q17.9-27.5 20.23-21.6 22.55-15.7 22.55-12.5L22.55-12.5Q22.55-6.5 17.82-2.63 13.1 1.25 7.2 1.25L7.2 1.25Q6.2 1.25 4.8 1.05 3.4 0.85 1.85 0.43 0.3 0-0.78-0.83-1.85-1.65-1.85-2.7L-1.85-2.7Q-1.85-3.1-1.7-3.45ZM72.17-6.65L73.07-8.35 74.62-11Q74.62-11.15 74.52-11.15 74.42-11.15 74.27-11L74.27-11Q72.42-8.85 70.42-6.83 68.42-4.8 67.37-3.85L67.37-3.85 66.27-2.9Q62.37 0.8 60.87 0.8L60.87 0.8Q60.17 0.8 60.17-0.1L60.17-0.1Q60.17-1.1 61-3.15 61.82-5.2 62.67-6.8L62.67-6.8 63.47-8.35Q67.67-16.2 69.67-18.85L69.67-18.85Q70.67-20.15 72.12-21.03 73.57-21.9 74.37-21.9L74.37-21.9Q74.87-21.9 74.87-21.55L74.87-21.55Q74.87-21.35 74.67-21L74.67-21Q74.57-20.8 72.62-17.68 70.67-14.55 69.47-12.3L69.47-12.3Q66.17-6.25 66.17-5.35L66.17-5.35Q66.17-5 66.47-5L66.47-5Q66.92-5 68.02-5.9L68.02-5.9Q71.27-8.7 75.17-13.45L75.17-13.45Q77.32-15.75 79.67-19.45L79.67-19.45Q81.27-21.9 83.92-21.9L83.92-21.9Q84.37-21.9 84.37-21.5L84.37-21.5 83.97-20.55Q83.27-19.3 80.85-15.08 78.42-10.85 78.07-10.25L78.07-10.25Q76.02-6.65 76.02-5.5L76.02-5.5Q76.02-5.05 76.32-5.05L76.32-5.05Q76.82-5.05 79.52-7.55L79.52-7.55Q81.62-9.65 85.07-13.6L85.07-13.6Q85.22-13.75 85.32-13.75 85.42-13.75 85.42-13.55L85.42-13.55Q85.42-12.6 84.67-11.7L84.67-11.7Q80.97-7.6 78.12-4.85L78.12-4.85Q76.17-3 73.75-1.15 71.32 0.7 70.22 0.7L70.22 0.7Q69.47 0.7 69.47-0.35L69.47-0.35Q69.47-0.95 70.37-2.95 71.27-4.95 72.17-6.65L72.17-6.65ZM131.95-4.85L131.95-4.85Q129.7-2.7 126.87-0.83 124.05 1.05 122.1 1.05L122.1 1.05Q119.8 1.05 119.8-2.5L119.8-2.5Q119.8-6.25 122.45-10.83 125.1-15.4 129.17-18.65 133.25-21.9 136.9-21.9L136.9-21.9Q138.85-21.9 138.85-20.45L138.85-20.45Q138.85-17.95 135.6-14.8L135.6-14.8Q135.3-14.5 134.3-13.75 133.3-13 132.9-13L132.9-13Q132.65-13 132.65-13.25L132.65-13.25 132.8-13.7Q134.8-17.25 134.8-19.1L134.8-19.1Q134.8-20.1 134.15-20.1L134.15-20.1Q132.6-20.1 130.22-17.07 127.85-14.05 126.1-10.18 124.35-6.3 124.35-4.05L124.35-4.05Q124.35-2.25 125.65-2.25L125.65-2.25Q127.9-2.25 131.3-5.5L131.3-5.5Q133.95-7.95 138.9-13.6L138.9-13.6Q139.05-13.75 139.15-13.75 139.25-13.75 139.25-13.55L139.25-13.55Q139.25-12.6 138.5-11.7L138.5-11.7Q134.8-7.6 131.95-4.85ZM185.77-4.85L185.77-4.85Q183.52-2.7 180.69-0.83 177.87 1.05 175.92 1.05L175.92 1.05Q173.62 1.05 173.62-2.5L173.62-2.5Q173.62-6.25 176.27-10.83 178.92-15.4 182.99-18.65 187.07-21.9 190.72-21.9L190.72-21.9Q192.67-21.9 192.67-20.45L192.67-20.45Q192.67-17.95 189.42-14.8L189.42-14.8Q189.12-14.5 188.12-13.75 187.12-13 186.72-13L186.72-13Q186.47-13 186.47-13.25L186.47-13.25 186.62-13.7Q188.62-17.25 188.62-19.1L188.62-19.1Q188.62-20.1 187.97-20.1L187.97-20.1Q186.42-20.1 184.04-17.07 181.67-14.05 179.92-10.18 178.17-6.3 178.17-4.05L178.17-4.05Q178.17-2.25 179.47-2.25L179.47-2.25Q181.72-2.25 185.12-5.5L185.12-5.5Q187.77-7.95 192.72-13.6L192.72-13.6Q192.87-13.75 192.97-13.75 193.07-13.75 193.07-13.55L193.07-13.55Q193.07-12.6 192.32-11.7L192.32-11.7Q188.62-7.6 185.77-4.85ZM241.14-16.95L241.14-16.95Q241.74-18.2 241.74-19.15L241.74-19.15Q241.74-19.95 241.24-19.95L241.24-19.95Q240.94-19.95 240.57-19.78 240.19-19.6 239.99-19.4L239.99-19.4 239.74-19.2Q238.19-17.85 235.87-14.28 233.54-10.7 233.54-9.7L233.54-9.7Q233.54-9.5 233.64-9.5L233.64-9.5Q233.94-9.5 234.97-10 235.99-10.5 237.92-12.35 239.84-14.2 241.14-16.95ZM238.89-5.5L238.89-5.5Q241.54-7.95 246.49-13.6L246.49-13.6Q246.64-13.75 246.74-13.75 246.84-13.75 246.84-13.55L246.84-13.55Q246.84-12.6 246.09-11.7L246.09-11.7Q242.39-7.6 239.54-4.85L239.54-4.85Q237.44-2.75 234.54-0.83 231.64 1.1 229.74 1.1L229.74 1.1Q227.44 1.1 227.44-2.1L227.44-2.1Q227.44-7.4 231.37-13.2 235.29-19 240.44-21.05L240.44-21.05Q242.59-21.95 244.34-21.95L244.34-21.95Q246.29-21.95 246.29-20.4L246.29-20.4Q246.29-17.5 242.19-13.75 238.09-10 232.99-8.05L232.99-8.05Q232.79-8 232.64-7.7L232.64-7.7Q231.89-5.65 231.89-4.05L231.89-4.05Q231.89-2.25 233.24-2.25L233.24-2.25Q235.39-2.25 238.89-5.5ZM292.96-5.7L292.96-5.7Q292.06-3.25 290.11-1.58 288.16 0.1 286.49 0.7 284.81 1.3 283.46 1.3L283.46 1.3Q279.81 1.3 279.81-1.55L279.81-1.55Q279.81-4.45 283.01-6.8L283.01-6.8Q284.51-7.9 286.26-8.25L286.26-8.25Q286.51-8.25 286.51-8.05L286.51-8.05Q286.51-7.95 286.41-7.85L286.41-7.85Q285.16-6.9 284.04-4.9 282.91-2.9 282.91-1.4 282.91 0.1 284.16 0.1L284.16 0.1Q285.16 0.1 286.14-0.73 287.11-1.55 287.61-2.4L287.61-2.4 288.11-3.2Q289.11-4.8 289.79-8.3 290.46-11.8 290.66-14.5L290.66-14.5 290.81-17.2Q290.81-17.6 290.66-17.6L290.66-17.6 290.46-17.5 285.51-11.7Q284.96-11.05 284.76-11.05L284.76-11.05Q284.51-11.05 284.51-11.4L284.51-11.4Q284.51-12.05 284.86-12.4L284.86-12.4 285.31-12.95Q291.01-19.35 291.81-20.7L291.81-20.7Q292.56-21.85 294.01-22.7L294.01-22.7Q295.41-23.5 297.31-23.5L297.31-23.5Q297.81-23.5 297.81-23.1L297.81-23.1Q297.81-22.85 297.41-22.65L297.41-22.65Q297.26-22.6 297.04-22.43 296.81-22.25 296.24-21.6 295.66-20.95 295.21-20.1 294.76-19.25 294.41-17.73 294.06-16.2 294.06-14.35L294.06-14.35Q294.06-8.6 292.96-5.7ZM346.04-5.7L346.04-5.7Q345.14-3.25 343.19-1.58 341.24 0.1 339.56 0.7 337.89 1.3 336.54 1.3L336.54 1.3Q332.89 1.3 332.89-1.55L332.89-1.55Q332.89-4.45 336.09-6.8L336.09-6.8Q337.59-7.9 339.34-8.25L339.34-8.25Q339.59-8.25 339.59-8.05L339.59-8.05Q339.59-7.95 339.49-7.85L339.49-7.85Q338.24-6.9 337.11-4.9 335.99-2.9 335.99-1.4 335.99 0.1 337.24 0.1L337.24 0.1Q338.24 0.1 339.21-0.73 340.19-1.55 340.69-2.4L340.69-2.4 341.19-3.2Q342.19-4.8 342.86-8.3 343.54-11.8 343.74-14.5L343.74-14.5 343.89-17.2Q343.89-17.6 343.74-17.6L343.74-17.6 343.54-17.5 338.59-11.7Q338.04-11.05 337.84-11.05L337.84-11.05Q337.59-11.05 337.59-11.4L337.59-11.4Q337.59-12.05 337.94-12.4L337.94-12.4 338.39-12.95Q344.09-19.35 344.89-20.7L344.89-20.7Q345.64-21.85 347.09-22.7L347.09-22.7Q348.49-23.5 350.39-23.5L350.39-23.5Q350.89-23.5 350.89-23.1L350.89-23.1Q350.89-22.85 350.49-22.65L350.49-22.65Q350.34-22.6 350.11-22.43 349.89-22.25 349.31-21.6 348.74-20.95 348.29-20.1 347.84-19.25 347.49-17.73 347.14-16.2 347.14-14.35L347.14-14.35Q347.14-8.6 346.04-5.7ZM444.43-7.55L444.43-7.55Q446.53-9.65 449.98-13.6L449.98-13.6Q450.13-13.75 450.23-13.75 450.33-13.75 450.33-13.55L450.33-13.55Q450.33-12.6 449.58-11.7L449.58-11.7Q445.88-7.6 443.03-4.85L443.03-4.85Q437.03 0.95 435.08 0.95L435.08 0.95Q434.38 0.95 434.38 0.05L434.38 0.05Q434.38-1 435.18-3.1 435.98-5.2 436.78-6.8L436.78-6.8 437.58-8.35Q438.73-10.4 441.38-15.35 444.03-20.3 446.51-24.7 448.98-29.1 451.18-32.65L451.18-32.65 447.23-32.65Q446.73-32.65 446.73-32.9 446.73-33.15 447.13-33.4 447.53-33.65 447.98-33.65L447.98-33.65Q449.08-33.65 451.83-33.7L451.83-33.7Q454.28-37.55 456.03-39.8L456.03-39.8Q457.58-41.75 458.18-41.75L458.18-41.75Q458.53-41.75 458.53-41.3L458.53-41.3Q458.53-40.25 456.63-36.8L456.63-36.8 454.93-33.7 460.08-33.7Q460.53-33.7 460.53-33.45L460.53-33.45Q460.53-32.65 459.08-32.65L459.08-32.65 454.38-32.65Q442.83-10.75 442.23-9.7L442.23-9.7Q440.13-5.85 440.13-4.7L440.13-4.7Q440.13-4.35 440.38-4.35L440.38-4.35Q441.08-4.35 444.43-7.55ZM499.21-3.15L499.21-3.15Q495.06 0.65 493.51 0.65L493.51 0.65Q492.81 0.65 492.81-0.15L492.81-0.15Q492.81-1.15 493.68-3.2 494.56-5.25 495.46-6.8L495.46-6.8 496.36-8.35Q496.56-8.7 496.56-8.8 496.56-8.9 496.46-8.9L496.46-8.9Q496.26-8.9 495.71-8.35L495.71-8.35Q494.21-6.7 492.28-4.83 490.36-2.95 489.16-1.9L489.16-1.9 488.01-0.9Q486.06 0.6 485.01 0.6L485.01 0.6Q483.91 0.6 483.91-1.1L483.91-1.1Q483.91-1.95 484.38-3.7 484.86-5.45 485.11-6.05L485.11-6.05Q486.26-8.85 487.98-11.5 489.71-14.15 492.06-16.57 494.41-19 497.53-20.5 500.66-22 504.01-22L504.01-22Q506.81-22 506.81-21.15L506.81-21.15Q506.81-20.65 505.56-20.65L505.56-20.65Q500.96-20.65 496.93-16.73 492.91-12.8 490.41-7.7L490.41-7.7Q489.71-6.3 489.71-5.35L489.71-5.35Q489.71-4.8 490.06-4.8L490.06-4.8Q490.66-4.8 491.61-5.65L491.61-5.65Q492.21-6.2 493.23-7.1 494.26-8 496.56-10.55 498.86-13.1 500.21-15.3L500.21-15.3Q500.41-15.7 500.83-16.25 501.26-16.8 502.46-17.73 503.66-18.65 504.86-18.65L504.86-18.65Q505.51-18.65 505.51-18.3L505.51-18.3Q505.51-18.2 505.36-17.95L505.36-17.95Q505.16-17.55 504.23-15.95 503.31-14.35 502.51-12.93 501.71-11.5 500.81-9.83 499.91-8.15 499.38-6.95 498.86-5.75 498.86-5.35L498.86-5.35Q498.86-5.05 499.11-5.05L499.11-5.05Q499.86-5.05 502.76-7.95L502.76-7.95Q504.96-10.25 507.91-13.6L507.91-13.6Q508.06-13.75 508.16-13.75 508.26-13.75 508.26-13.55L508.26-13.55Q508.26-12.6 507.51-11.7L507.51-11.7Q502.61-6.25 499.21-3.15ZM554.38-5.7L554.38-5.7Q553.48-3.25 551.53-1.58 549.58 0.1 547.9 0.7 546.23 1.3 544.88 1.3L544.88 1.3Q541.23 1.3 541.23-1.55L541.23-1.55Q541.23-4.45 544.43-6.8L544.43-6.8Q545.93-7.9 547.68-8.25L547.68-8.25Q547.93-8.25 547.93-8.05L547.93-8.05Q547.93-7.95 547.83-7.85L547.83-7.85Q546.58-6.9 545.45-4.9 544.33-2.9 544.33-1.4 544.33 0.1 545.58 0.1L545.58 0.1Q546.58 0.1 547.55-0.73 548.53-1.55 549.03-2.4L549.03-2.4 549.53-3.2Q550.53-4.8 551.2-8.3 551.88-11.8 552.08-14.5L552.08-14.5 552.23-17.2Q552.23-17.6 552.08-17.6L552.08-17.6 551.88-17.5 546.93-11.7Q546.38-11.05 546.18-11.05L546.18-11.05Q545.93-11.05 545.93-11.4L545.93-11.4Q545.93-12.05 546.28-12.4L546.28-12.4 546.73-12.95Q552.43-19.35 553.23-20.7L553.23-20.7Q553.98-21.85 555.43-22.7L555.43-22.7Q556.83-23.5 558.73-23.5L558.73-23.5Q559.23-23.5 559.23-23.1L559.23-23.1Q559.23-22.85 558.83-22.65L558.83-22.65Q558.68-22.6 558.45-22.43 558.23-22.25 557.65-21.6 557.08-20.95 556.63-20.1 556.18-19.25 555.83-17.73 555.48-16.2 555.48-14.35L555.48-14.35Q555.48-8.6 554.38-5.7ZM604.35-7.55L604.35-7.55Q606.45-9.65 609.9-13.6L609.9-13.6Q610.05-13.75 610.15-13.75 610.25-13.75 610.25-13.55L610.25-13.55Q610.25-12.6 609.5-11.7L609.5-11.7Q605.8-7.6 602.95-4.85L602.95-4.85Q596.95 0.95 595 0.95L595 0.95Q594.3 0.95 594.3 0.05L594.3 0.05Q594.3-1 595.1-3.1 595.9-5.2 596.7-6.8L596.7-6.8 597.5-8.35Q598.65-10.4 601.3-15.35 603.95-20.3 606.43-24.7 608.9-29.1 611.1-32.65L611.1-32.65 607.15-32.65Q606.65-32.65 606.65-32.9 606.65-33.15 607.05-33.4 607.45-33.65 607.9-33.65L607.9-33.65Q609-33.65 611.75-33.7L611.75-33.7Q614.2-37.55 615.95-39.8L615.95-39.8Q617.5-41.75 618.1-41.75L618.1-41.75Q618.45-41.75 618.45-41.3L618.45-41.3Q618.45-40.25 616.55-36.8L616.55-36.8 614.85-33.7 620-33.7Q620.45-33.7 620.45-33.45L620.45-33.45Q620.45-32.65 619-32.65L619-32.65 614.3-32.65Q602.75-10.75 602.15-9.7L602.15-9.7Q600.05-5.85 600.05-4.7L600.05-4.7Q600.05-4.35 600.3-4.35L600.3-4.35Q601-4.35 604.35-7.55ZM658.32-16.95L658.32-16.95Q658.92-18.2 658.92-19.15L658.92-19.15Q658.92-19.95 658.42-19.95L658.42-19.95Q658.12-19.95 657.75-19.78 657.37-19.6 657.17-19.4L657.17-19.4 656.92-19.2Q655.37-17.85 653.05-14.28 650.72-10.7 650.72-9.7L650.72-9.7Q650.72-9.5 650.82-9.5L650.82-9.5Q651.12-9.5 652.15-10 653.17-10.5 655.1-12.35 657.02-14.2 658.32-16.95ZM656.07-5.5L656.07-5.5Q658.72-7.95 663.67-13.6L663.67-13.6Q663.82-13.75 663.92-13.75 664.02-13.75 664.02-13.55L664.02-13.55Q664.02-12.6 663.27-11.7L663.27-11.7Q659.57-7.6 656.72-4.85L656.72-4.85Q654.62-2.75 651.72-0.83 648.82 1.1 646.92 1.1L646.92 1.1Q644.62 1.1 644.62-2.1L644.62-2.1Q644.62-7.4 648.55-13.2 652.47-19 657.62-21.05L657.62-21.05Q659.77-21.95 661.52-21.95L661.52-21.95Q663.47-21.95 663.47-20.4L663.47-20.4Q663.47-17.5 659.37-13.75 655.27-10 650.17-8.05L650.17-8.05Q649.97-8 649.82-7.7L649.82-7.7Q649.07-5.65 649.07-4.05L649.07-4.05Q649.07-2.25 650.42-2.25L650.42-2.25Q652.57-2.25 656.07-5.5ZM710.15-5.7L710.15-5.7Q709.25-3.25 707.3-1.58 705.35 0.1 703.67 0.7 702 1.3 700.65 1.3L700.65 1.3Q697 1.3 697-1.55L697-1.55Q697-4.45 700.2-6.8L700.2-6.8Q701.7-7.9 703.45-8.25L703.45-8.25Q703.7-8.25 703.7-8.05L703.7-8.05Q703.7-7.95 703.6-7.85L703.6-7.85Q702.35-6.9 701.22-4.9 700.1-2.9 700.1-1.4 700.1 0.1 701.35 0.1L701.35 0.1Q702.35 0.1 703.32-0.73 704.3-1.55 704.8-2.4L704.8-2.4 705.3-3.2Q706.3-4.8 706.97-8.3 707.65-11.8 707.85-14.5L707.85-14.5 708-17.2Q708-17.6 707.85-17.6L707.85-17.6 707.65-17.5 702.7-11.7Q702.15-11.05 701.95-11.05L701.95-11.05Q701.7-11.05 701.7-11.4L701.7-11.4Q701.7-12.05 702.05-12.4L702.05-12.4 702.5-12.95Q708.2-19.35 709-20.7L709-20.7Q709.75-21.85 711.2-22.7L711.2-22.7Q712.6-23.5 714.5-23.5L714.5-23.5Q715-23.5 715-23.1L715-23.1Q715-22.85 714.6-22.65L714.6-22.65Q714.45-22.6 714.22-22.43 714-22.25 713.42-21.6 712.85-20.95 712.4-20.1 711.95-19.25 711.6-17.73 711.25-16.2 711.25-14.35L711.25-14.35Q711.25-8.6 710.15-5.7ZM814.39-3.15L814.39-3.15Q810.24 0.65 808.69 0.65L808.69 0.65Q807.99 0.65 807.99-0.15L807.99-0.15Q807.99-1.15 808.87-3.2 809.74-5.25 810.64-6.8L810.64-6.8 811.54-8.35Q811.74-8.7 811.74-8.8 811.74-8.9 811.64-8.9L811.64-8.9Q811.44-8.9 810.89-8.35L810.89-8.35Q809.39-6.7 807.47-4.83 805.54-2.95 804.34-1.9L804.34-1.9 803.19-0.9Q801.24 0.6 800.19 0.6L800.19 0.6Q799.09 0.6 799.09-1.1L799.09-1.1Q799.09-1.95 799.57-3.7 800.04-5.45 800.29-6.05L800.29-6.05Q801.44-8.85 803.17-11.5 804.89-14.15 807.24-16.57 809.59-19 812.72-20.5 815.84-22 819.19-22L819.19-22Q821.99-22 821.99-21.15L821.99-21.15Q821.99-20.65 820.74-20.65L820.74-20.65Q816.14-20.65 812.12-16.73 808.09-12.8 805.59-7.7L805.59-7.7Q804.89-6.3 804.89-5.35L804.89-5.35Q804.89-4.8 805.24-4.8L805.24-4.8Q805.84-4.8 806.79-5.65L806.79-5.65Q807.39-6.2 808.42-7.1 809.44-8 811.74-10.55 814.04-13.1 815.39-15.3L815.39-15.3Q815.59-15.7 816.02-16.25 816.44-16.8 817.64-17.73 818.84-18.65 820.04-18.65L820.04-18.65Q820.69-18.65 820.69-18.3L820.69-18.3Q820.69-18.2 820.54-17.95L820.54-17.95Q820.34-17.55 819.42-15.95 818.49-14.35 817.69-12.93 816.89-11.5 815.99-9.83 815.09-8.15 814.57-6.95 814.04-5.75 814.04-5.35L814.04-5.35Q814.04-5.05 814.29-5.05L814.29-5.05Q815.04-5.05 817.94-7.95L817.94-7.95Q820.14-10.25 823.09-13.6L823.09-13.6Q823.24-13.75 823.34-13.75 823.44-13.75 823.44-13.55L823.44-13.55Q823.44-12.6 822.69-11.7L822.69-11.7Q817.79-6.25 814.39-3.15ZM885.96-7.55L885.96-7.55Q888.06-9.65 891.51-13.6L891.51-13.6Q891.66-13.75 891.76-13.75 891.86-13.75 891.86-13.55L891.86-13.55Q891.86-12.6 891.11-11.7L891.11-11.7Q887.41-7.6 884.56-4.85L884.56-4.85Q878.66 0.65 876.81 0.65L876.81 0.65Q876.01 0.65 876.01-0.3 876.01-1.25 877.04-3.45 878.06-5.65 879.09-7.45 880.11-9.25 881.69-11.85 883.26-14.45 883.36-14.65L883.36-14.65Q884.26-16.1 884.26-16.5L884.26-16.5Q884.26-16.75 884.01-16.75L884.01-16.75 883.31-16.5Q881.01-14.85 877.81-11.38 874.61-7.9 872.56-5.3L872.56-5.3 870.51-2.65Q868.21 0.65 866.01 0.65L866.01 0.65Q865.36 0.65 865.36 0.25L865.36 0.25Q865.36-0.2 866.31-2.13 867.26-4.05 868.21-5.75L868.21-5.75 869.16-7.45Q869.51-8.15 870.89-10.48 872.26-12.8 873.19-14.48 874.11-16.15 874.11-16.55L874.11-16.55Q874.11-16.8 873.91-16.8L873.91-16.8 873.21-16.5Q870.86-14.85 867.66-11.38 864.46-7.9 862.46-5.3L862.46-5.3 860.41-2.65Q858.06 0.6 855.91 0.6L855.91 0.6Q855.26 0.6 855.26 0.25L855.26 0.25Q855.26-0.2 856.21-2.13 857.16-4.05 858.11-5.75L858.11-5.75 859.06-7.45 863.91-16.05Q865.11-18.3 866.81-20.08 868.51-21.85 870.36-21.85L870.36-21.85Q870.76-21.85 870.76-21.5L870.76-21.5Q870.76-21.2 870.19-20.23 869.61-19.25 868.54-17.53 867.46-15.8 866.71-14.35L866.71-14.35Q866.26-13.5 865.64-12.43 865.01-11.35 864.61-10.63 864.21-9.9 864.06-9.6 863.91-9.3 863.91-9.15L863.91-9.15Q863.91-9.05 864.01-9.05L864.01-9.05Q864.16-9.05 864.51-9.4L864.51-9.4Q865.46-10.5 866.99-12.15 868.51-13.8 872.16-17.13 875.81-20.45 878.16-21.6L878.16-21.6Q878.66-21.85 879.16-21.85L879.16-21.85Q879.86-21.85 879.86-21.15L879.86-21.15Q879.86-19.85 876.91-14.4L876.91-14.4Q876.66-13.95 875.89-12.65 875.11-11.35 874.59-10.4 874.06-9.45 874.06-9.2L874.06-9.2Q874.06-9.05 874.16-9.05L874.16-9.05Q874.31-9.05 874.66-9.4L874.66-9.4Q875.61-10.5 877.14-12.15 878.66-13.8 882.29-17.13 885.91-20.45 888.26-21.6L888.26-21.6Q888.86-21.85 889.31-21.85L889.31-21.85Q890.06-21.85 890.06-21.15L890.06-21.15Q890.06-20.95 889.86-20.28 889.66-19.6 888.71-17.53 887.76-15.45 886.21-12.95L886.21-12.95Q882.41-7.1 882.41-5.6L882.41-5.6Q882.41-5.15 882.71-5.15L882.71-5.15Q883.56-5.15 885.96-7.55ZM940.74-3.15L940.74-3.15Q936.59 0.65 935.04 0.65L935.04 0.65Q934.34 0.65 934.34-0.15L934.34-0.15Q934.34-1.15 935.21-3.2 936.09-5.25 936.99-6.8L936.99-6.8 937.89-8.35Q938.09-8.7 938.09-8.8 938.09-8.9 937.99-8.9L937.99-8.9Q937.79-8.9 937.24-8.35L937.24-8.35Q935.74-6.7 933.81-4.83 931.89-2.95 930.69-1.9L930.69-1.9 929.54-0.9Q927.59 0.6 926.54 0.6L926.54 0.6Q925.44 0.6 925.44-1.1L925.44-1.1Q925.44-1.95 925.91-3.7 926.39-5.45 926.64-6.05L926.64-6.05Q927.79-8.85 929.51-11.5 931.24-14.15 933.59-16.57 935.94-19 939.06-20.5 942.19-22 945.54-22L945.54-22Q948.34-22 948.34-21.15L948.34-21.15Q948.34-20.65 947.09-20.65L947.09-20.65Q942.49-20.65 938.46-16.73 934.44-12.8 931.94-7.7L931.94-7.7Q931.24-6.3 931.24-5.35L931.24-5.35Q931.24-4.8 931.59-4.8L931.59-4.8Q932.19-4.8 933.14-5.65L933.14-5.65Q933.74-6.2 934.76-7.1 935.79-8 938.09-10.55 940.39-13.1 941.74-15.3L941.74-15.3Q941.94-15.7 942.36-16.25 942.79-16.8 943.99-17.73 945.19-18.65 946.39-18.65L946.39-18.65Q947.04-18.65 947.04-18.3L947.04-18.3Q947.04-18.2 946.89-17.95L946.89-17.95Q946.69-17.55 945.76-15.95 944.84-14.35 944.04-12.93 943.24-11.5 942.34-9.83 941.44-8.15 940.91-6.95 940.39-5.75 940.39-5.35L940.39-5.35Q940.39-5.05 940.64-5.05L940.64-5.05Q941.39-5.05 944.29-7.95L944.29-7.95Q946.49-10.25 949.44-13.6L949.44-13.6Q949.59-13.75 949.69-13.75 949.79-13.75 949.79-13.55L949.79-13.55Q949.79-12.6 949.04-11.7L949.04-11.7Q944.14-6.25 940.74-3.15ZM1006.46-20.9L1006.46-20.9Q1005.66-20 1003.31-17.8 1000.96-15.6 999.01-13.85L999.01-13.85 997.06-12.1Q994.21-9.6 991.81-7.05 989.41-4.5 988.41-3.2L988.41-3.2 987.46-1.9Q987.26-1.55 987.26-1.3L987.26-1.3Q987.26-0.85 988.86-0.85L988.86-0.85Q991.71-0.85 994.81-3.85L994.81-3.85Q998.56-7.6 999.41-7.6L999.41-7.6Q999.66-7.6 999.66-7.15L999.66-7.15Q997.51-2.45 996.36-1.05L996.36-1.05Q995.51 0.05 994.26 0.2L994.26 0.2Q993.31 0.35 990.76 0.35L990.76 0.35Q989.76 0.35 988.66 0.33 987.56 0.3 986.79 0.28 986.01 0.25 985.86 0.25L985.86 0.25Q985.21 0.25 984.69 0.35 984.16 0.45 983.96 0.55L983.96 0.55 983.76 0.65Q981.96 1.75 981.26 1.75L981.26 1.75Q980.86 1.75 980.86 1.35L980.86 1.35Q980.86 0.1 982.59-2.23 984.31-4.55 986.71-6.9 989.11-9.25 990.69-10.73 992.26-12.2 992.86-12.65L992.86-12.65Q995.56-14.9 998.59-17.57 1001.61-20.25 1001.61-20.45L1001.61-20.45Q1001.61-20.75 1000.76-20.75L1000.76-20.75Q995.81-20.7 991.41-15.95L991.41-15.95Q991.36-15.9 991.11-15.9L991.11-15.9Q990.46-15.9 990.46-16.15L990.46-16.15Q990.46-16.25 991.14-17.2 991.81-18.15 992.61-19.33 993.41-20.5 993.61-20.95L993.61-20.95Q994.01-21.5 994.66-21.55L994.66-21.55Q998.86-21.8 1002.61-21.8L1002.61-21.8Q1005.16-21.8 1006.16-21.7L1006.16-21.7Q1006.71-21.65 1006.71-21.35L1006.71-21.35Q1006.71-21.25 1006.46-20.9ZM1046.78-4.85L1046.78-4.85Q1040.93 0.65 1039.28 0.65L1039.28 0.65Q1038.43 0.65 1038.43-0.5 1038.43-1.65 1039.33-3.85 1040.23-6.05 1041.13-7.7L1041.13-7.7 1042.03-9.3Q1045.83-15.95 1047.78-18.85L1047.78-18.85Q1048.63-20.1 1049.96-20.98 1051.28-21.85 1052.43-21.85L1052.43-21.85Q1052.83-21.85 1052.83-21.5L1052.83-21.5Q1052.83-21.25 1052.48-20.55L1052.48-20.55Q1051.88-19.45 1049.53-15.3 1047.18-11.15 1046.73-10.3L1046.73-10.3Q1044.68-6.7 1044.68-5.5L1044.68-5.5Q1044.68-5.05 1044.98-5.05L1044.98-5.05Q1045.48-5.05 1048.18-7.55L1048.18-7.55Q1050.28-9.65 1053.73-13.6L1053.73-13.6Q1053.88-13.75 1053.98-13.75 1054.08-13.75 1054.08-13.55L1054.08-13.55Q1054.08-12.6 1053.33-11.7L1053.33-11.7Q1049.63-7.6 1046.78-4.85ZM1053.43-24.7L1053.43-24.7Q1052.18-24.7 1052.18-26.2L1052.18-26.2Q1052.18-27.6 1053.23-29.03 1054.28-30.45 1055.53-30.45L1055.53-30.45Q1057.03-30.45 1057.03-28.75L1057.03-28.75Q1057.03-27.35 1055.88-26.03 1054.73-24.7 1053.43-24.7ZM1105.16-4.85L1105.16-4.85Q1099.31 0.65 1097.46 0.65L1097.46 0.65Q1096.61 0.65 1096.61-0.25L1096.61-0.25Q1096.61-0.8 1096.86-1.63 1097.11-2.45 1097.48-3.28 1097.86-4.1 1098.21-4.8 1098.56-5.5 1098.91-6.1 1099.26-6.7 1099.26-6.75L1099.26-6.75Q1100.01-8.1 1101.51-10.53 1103.01-12.95 1103.91-14.53 1104.81-16.1 1104.81-16.45L1104.81-16.45Q1104.81-16.7 1104.56-16.7L1104.56-16.7 1103.86-16.45Q1101.56-14.8 1098.36-11.33 1095.16-7.85 1093.11-5.2L1093.11-5.2 1091.06-2.6Q1090.41-1.65 1089.91-1.05 1089.41-0.45 1088.48 0.13 1087.56 0.7 1086.61 0.7L1086.61 0.7Q1085.91 0.7 1085.91 0.3 1085.91-0.1 1086.86-2.02 1087.81-3.95 1088.76-5.7L1088.76-5.7 1089.71-7.4 1094.61-16Q1095.36-17.25 1095.83-17.93 1096.31-18.6 1097.16-19.63 1098.01-20.65 1098.98-21.15 1099.96-21.65 1101.06-21.75L1101.06-21.75Q1101.46-21.75 1101.46-21.4L1101.46-21.4Q1101.46-21.1 1101.31-20.9L1101.31-20.9Q1100.16-19.1 1097.78-14.95 1095.41-10.8 1094.76-9.55L1094.76-9.55Q1094.61-9.25 1094.61-9.1L1094.61-9.1Q1094.61-9 1094.71-9 1094.81-9 1095.21-9.3L1095.21-9.3Q1096.16-10.4 1097.68-12.05 1099.21-13.7 1102.86-17.03 1106.51-20.35 1108.86-21.5L1108.86-21.5Q1109.41-21.75 1109.91-21.75L1109.91-21.75Q1110.61-21.75 1110.61-20.95L1110.61-20.95Q1110.21-18.6 1106.76-12.9L1106.76-12.9Q1102.96-6.65 1102.96-5.5L1102.96-5.5Q1102.96-5.1 1103.31-5.1L1103.31-5.1Q1103.56-5.1 1103.88-5.28 1104.21-5.45 1104.61-5.78 1105.01-6.1 1105.28-6.35 1105.56-6.6 1106.01-7.03 1106.46-7.45 1106.56-7.55L1106.56-7.55Q1108.66-9.65 1112.11-13.6L1112.11-13.6Q1112.26-13.75 1112.36-13.75 1112.46-13.75 1112.46-13.55L1112.46-13.55Q1112.46-12.6 1111.71-11.7L1111.71-11.7Q1108.01-7.6 1105.16-4.85ZM1153.48 1.45L1158.53-8.35Q1158.73-8.75 1158.73-8.9L1158.73-8.9 1158.23-8.55Q1156.68-6.75 1154.65-4.85 1152.63-2.95 1151.38-1.9L1151.38-1.9 1150.13-0.9Q1148.08 0.6 1147.03 0.6L1147.03 0.6Q1146.03 0.6 1146.03-0.85L1146.03-0.85Q1146.03-4.45 1148.68-9.35 1151.33-14.25 1155.55-17.95 1159.78-21.65 1163.58-21.65L1163.58-21.65Q1164.33-21.65 1164.85-21.48 1165.38-21.3 1165.6-21.15 1165.83-21 1165.88-21L1165.88-21Q1165.98-21 1166.13-21.15L1166.13-21.15Q1166.43-21.55 1166.9-22.15 1167.38-22.75 1168.53-23.78 1169.68-24.8 1170.38-24.8L1170.38-24.8Q1170.73-24.8 1170.73-24.3L1170.73-24.3Q1170.73-23.6 1170.03-22.2L1170.03-22.2Q1164.68-12.35 1163.53-10.3L1163.53-10.3Q1163.13-9.55 1161.7-7.08 1160.28-4.6 1159.68-3.55L1159.68-3.55Q1162.83-6.1 1164.88-7.95L1164.88-7.95Q1167.08-10.25 1170.03-13.6L1170.03-13.6Q1170.18-13.75 1170.28-13.75 1170.38-13.75 1170.38-13.55L1170.38-13.55Q1170.38-12.6 1169.63-11.7L1169.63-11.7Q1167.43-9.3 1165.83-7.6L1165.83-7.6Q1163.73-5.4 1158.33-1.2L1158.33-1.2 1157.03 1.2Q1147.38 18.95 1143.73 24.3L1143.73 24.3Q1143.38 24.85 1142.83 25.63 1142.28 26.4 1141.03 27.73 1139.78 29.05 1139.03 29.05L1139.03 29.05Q1137.83 29.05 1137.83 25.6L1137.83 25.6Q1137.83 20.5 1141.48 14.5L1141.48 14.5Q1145.33 8.15 1153.48 1.45L1153.48 1.45ZM1165.18-20L1165.18-20Q1165.23-20.05 1165.23-20.2L1165.23-20.2Q1165.23-20.55 1164.43-20.55L1164.43-20.55Q1162.43-20.55 1159.28-17.45 1156.13-14.35 1153.83-10.65 1151.53-6.95 1151.53-5.2L1151.53-5.2Q1151.53-4.5 1152.13-4.5L1152.13-4.5Q1152.68-4.5 1153.53-5.2L1153.53-5.2Q1154.28-5.85 1155.55-7.03 1156.83-8.2 1159.93-12.05 1163.03-15.9 1165.18-20ZM1142.73 14.4L1142.73 14.4Q1142.33 15 1141.78 15.98 1141.23 16.95 1140.28 19.33 1139.33 21.7 1139.33 23.3L1139.33 23.3Q1139.33 24.15 1139.63 24.15L1139.63 24.15Q1139.88 24.15 1140.38 23.68 1140.88 23.2 1141.23 22.7L1141.23 22.7 1141.58 22.2Q1145.78 15.7 1152.18 3.85L1152.18 3.85Q1145.88 9.3 1142.73 14.4Z" opacity="1" transform="matrix(1,0,0,1,0,0)" fill="#000000" class="slogan-text-1" data-fill-palette-color="secondary" id="text-1"></path></svg></g></svg></g></svg></g></svg></g></svg></g><defs></defs></svg><rect width="395.52" height="121.17869262099917" fill="none" stroke="none" visibility="hidden"></rect></g></svg></g></svg>